PathFileType	4	(X/Y/Z)	Patient4_TMGait_0pt4_01_right_12.trc.trc
DataRate	CameraRate	NumFrames	NumMarkers	Units	OrigDataRate	OrigDataStartFrame	OrigNumFrames
70.351758793970	70.351758793970	5	33	mm	70.351758793970	1	       141
Frame#	Time	Sacral			L.Shoulder			Chest			R.Shoulder			Neck			R.ASIS			L.ASIS			R.Thigh.Superior			R.Thigh.Lateral			R.Thigh.Inferior			R.Patella			L.Thigh.Superior			L.Thigh.Lateral			L.Thigh.Inferior			L.Patella			L.Shank.Superior			L.Shank.Lateral			L.Shank.Inferior			R.Shank.Superior			R.Shank.Lateral			R.Shank.Inferior			R.Heel			R.Midfoot.Superior			R.Midfoot.Lateral			R.Toe			L.Heel			L.Midfoot.Lateral			L.Midfoot.Superior			L.Toe			L.Elbow			L.Wrist			R.Elbow			R.Wrist			
		X1	Y1	Z1	X2	Y2	Z2	X3	Y3	Z3	X4	Y4	Z4	X5	Y5	Z5	X6	Y6	Z6	X7	Y7	Z7	X8	Y8	Z8	X9	Y9	Z9	X10	Y10	Z10	X11	Y11	Z11	X12	Y12	Z12	X13	Y13	Z13	X14	Y14	Z14	X15	Y15	Z15	X16	Y16	Z16	X17	Y17	Z17	X18	Y18	Z18	X19	Y19	Z19	X20	Y20	Z20	X21	Y21	Z21	X22	Y22	Z22	X23	Y23	Z23	X24	Y24	Z24	X25	Y25	Z25	X26	Y26	Z26	X27	Y27	Z27	X28	Y28	Z28	X29	Y29	Z29	X30	Y30	Z30	X31	Y31	Z31	X32	Y32	Z32	X33	Y33	Z33	

1	15.290000000000	817.166741015806	1006.984705412148	448.515264265177	1001.822583076393	1430.257137622880	252.650067878645	1101.376729922651	1366.187200344303	417.137197557269	1017.341304418970	1446.250113934605	588.396840522395	990.561856009690	1498.226250997137	406.619046471547	1045.852251038036	948.045799226497	566.233983188493	1032.471110574687	963.031392404200	291.638527986779	1118.696917893068	765.347960285175	546.014863210458	1065.270490454401	648.401884755383	621.217404933111	1155.803919870996	601.433094489368	548.494373001615	1164.932310347798	490.146672257964	574.084063754106	1082.304888695438	751.788392788603	316.311666528524	989.383923493046	635.361987223017	267.115805948249	1077.147685086043	558.173863158364	326.418281642423	1077.143242982372	488.707452640894	338.164391980539	1047.252088250950	416.727845663324	333.805725751319	951.146090803845	304.213772536884	289.354703816098	1002.008706773550	193.544795735382	362.740561252105	1087.112231742340	417.755466807169	579.358726603999	963.581545341070	382.220603462656	638.825997813636	947.223983985138	273.286523037931	590.634860404357	743.698020624916	211.123011050962	562.379623894035	915.073037147067	158.205251852014	605.247769929358	804.103662860242	151.756645215385	634.992161910955	981.904251091464	45.455123664514	627.376234315435	870.563442128249	39.640639134351	412.756608508784	943.595653781350	35.767528705781	331.399965402494	1027.832566877029	96.036627029403	355.955652867590	1156.069453701126	40.767045377300	327.962430748497	990.044004277150	1079.155252118923	130.247604977211	1142.577454317349	865.395775806656	126.443713963365	986.007152902005	1100.629774367114	713.842318974924	1081.462930877004	857.045541850214	725.668722204685	
2	15.304214285714	816.122712017758	1007.610539197411	447.227005450954	1002.680675537134	1430.287226023703	251.628948561701	1100.851230440357	1366.559059835039	417.031372849817	1015.637753327672	1447.067546549409	587.437584898985	990.351173644210	1498.613410451725	405.335731692302	1044.424496338615	948.899990323087	566.113525794421	1032.181088288402	963.432857344906	291.504849020099	1119.381375263836	768.260939999037	545.535260257170	1067.967844690400	650.629846232174	620.973066101743	1158.876918569943	604.973366618934	547.865579728026	1170.311050921903	494.451858852622	573.501073715300	1079.604151717220	751.173998341561	317.088258793787	985.728818856545	635.656170864623	266.923020929744	1072.067031513832	557.599840512843	326.711107997996	1071.137054649962	488.373372901035	338.423385536633	1041.394061602631	416.702980431082	333.838457105090	945.265968414764	304.260278858818	289.285488776166	996.013677511710	193.564551480211	362.743805300492	1094.806985686803	420.214613966924	579.085698798962	973.019144278176	380.307547931606	638.828449237467	960.466588986502	270.860832369436	590.735388214154	759.584898674544	201.343833997847	563.024652127287	932.570728358026	154.988830312309	605.741091833617	822.126898571571	144.747919320515	635.881047122983	1003.374523476046	45.080069928691	628.424518833304	864.438229476826	39.599994535321	412.709568792105	937.530082065071	35.742476179329	331.334037064147	1021.763809633130	96.023677487272	355.906860858506	1150.002963697510	40.795082464347	327.907450781529	995.310278214993	1079.373671388201	128.934851020219	1150.207664264858	867.399654329496	125.331468195346	975.805336794623	1103.850888894288	714.955229005567	1061.650846036279	857.648990515939	730.543111869847	
3	15.318428571429	815.081626869951	1008.208848055151	445.987331915521	1003.556893374405	1430.291115467084	250.649046144468	1100.334699646242	1366.906131527282	416.967856554472	1013.933220411243	1447.863515278022	586.508329473257	990.155575176668	1498.975105301512	404.092896032783	1042.981726047482	949.731233075734	566.044143952161	1031.961067499988	963.870849087956	291.404356627881	1119.988391611288	771.102518138527	545.066821723692	1070.578857877798	652.800742521830	620.732757643446	1161.765055838635	608.406100273395	547.196019135269	1175.506734126616	498.717365115080	572.892677334267	1076.900047062911	750.546718825055	317.921023877280	982.042310053171	635.945751504379	266.756154447867	1066.923287980673	557.019666595947	327.042729986469	1065.061903825434	488.047479076970	338.724627580841	1035.488860187775	416.682860134060	333.904726325235	939.373215398049	304.296355657516	289.235669229105	990.009297572003	193.581076581090	362.769278106211	1102.413066842574	422.607582396984	578.801903578223	982.515388927282	378.195301647595	638.903953578725	973.882164331069	268.268092519340	590.892651529242	775.799448507550	191.205050374118	563.847049608167	950.393894532159	151.597390553112	606.267789795109	840.558577298198	137.459626991448	636.891365439531	1025.263876867384	44.655051513573	629.411558148059	858.330852228358	39.551005078942	412.667441556197	931.474025412029	35.716520574242	331.272647123480	1015.703411764958	96.011188064811	355.866433217259	1143.947363784504	40.825295781627	327.855242593635	1000.517710829452	1079.565746658235	127.696420262624	1157.736063391515	869.348724480191	124.306366471790	965.602520574767	1107.087248317690	716.049399389327	1042.023229435633	858.392071940020	735.296793369065	
4	15.332642857143	814.054845378094	1008.753386896096	444.847739190562	1004.464492503847	1430.244065605009	249.764892747563	1099.845541034078	1367.196469846464	416.991516015523	1012.256959617251	1448.604890450758	585.657927623197	989.997969484028	1499.282903595412	402.948072706326	1041.523954152875	950.501902822868	566.071943321478	1031.852992475520	964.354983512467	291.370671186364	1120.418290179527	773.753655873248	544.637529015470	1072.952351923273	654.825103526955	620.520952843829	1164.251818782942	611.582152564594	546.486124795472	1180.274369665811	502.850498694236	572.252610733691	1074.207190279371	749.898869803382	318.838951604040	978.331941886960	636.223030092510	266.635411828814	1061.715515292848	556.433600326338	327.438253303144	1058.923327097050	487.736904614726	339.093247640821	1029.551350179609	416.669598564426	334.028477235246	933.506946608014	304.314119589106	289.218411962694	984.033721245429	193.591999583792	362.832675290003	1109.759415757701	424.868672720890	578.512053108628	992.043735792597	375.765147199455	639.109340953845	987.514524903137	265.455752589733	591.143597032060	792.560593451660	180.581811836778	564.944869404348	968.700660435567	147.999381315640	606.835529683356	859.639224887262	129.812459978266	638.077683307627	1047.749754856161	44.242536481820	630.267903150022	852.294483172279	39.489033673044	412.634450587712	925.476124485253	35.689243127012	331.219574827566	1009.699474479660	95.999272795595	355.840796097474	1137.952910548967	40.859291911792	327.808313485367	1005.564625131723	1079.703668743955	126.614398117013	1165.002855771261	871.174665082080	123.463769603838	955.512961854061	1110.305127584121	717.090117009593	1022.925717268032	859.357833382909	739.782318843823	
5	15.346857142857	813.049121879223	1009.223406126384	443.848122509572	1005.418368268918	1430.122766794454	249.025551425464	1099.400913499411	1367.399518018223	417.143814842119	1010.634093728823	1449.261977800107	584.929101698553	989.901885092607	1499.511227074844	401.951993263053	1040.048790144138	951.176456303010	566.236550921522	1031.896734912804	964.896922954531	291.427968899250	1120.573978125694	776.103262156739	544.273869286204	1074.938678960936	656.620356417812	620.363644378042	1166.141359951546	614.367799518439	545.747278010165	1184.392492259847	506.771956221444	571.577219247582	1071.527396204515	749.219776175867	319.859462010617	974.593533942561	636.481461671676	266.575420001113	1056.431869590996	555.839947158554	327.915537148875	1052.715429727195	487.445754161373	339.545026099499	1023.580523285090	416.663756490931	334.226910120163	927.683273576842	304.307750526123	289.241782155857	978.101067202361	193.595237684329	362.945699397321	1116.705812387556	426.952287843396	578.223185138467	1001.611657190415	372.929328089009	639.493366783210	1001.442440518063	262.406656851703	591.515174238121	810.137110383493	169.393272387232	566.383947103440	987.687632330699	144.207097907890	607.446558661499	879.645899892248	121.774060908860	639.468707584882	1071.039945964030	43.949754599847	630.937375732873	846.352385980289	39.410713354992	412.613592486234	919.556457102392	35.659955795005	331.177628817608	1003.771562840838	95.987734542812	355.834925492982	1132.040746077500	40.897953641243	327.768691100287	1010.375138616238	1079.761586826651	125.757879546493	1171.889171607453	872.821764869440	122.886753946578	945.624327465549	1113.475243629179	718.045413112581	1004.609215682988	860.598411260896	743.886622220862	
